<svg width="12" height="12" viewBox="0 0 12 12" fill="none" xmlns="http://www.w3.org/2000/svg">
<path d="M10.8164 3.32343C10.6593 2.95972 10.4328 2.63014 10.1496 2.35312C9.86617 2.07527 9.53199 1.85447 9.16523 1.70273C8.78493 1.54475 8.37704 1.46389 7.96523 1.46484C7.3875 1.46484 6.82383 1.62304 6.33398 1.92187C6.2168 1.99335 6.10547 2.07187 6 2.15741C5.89453 2.07187 5.7832 1.99335 5.66602 1.92187C5.17617 1.62304 4.6125 1.46484 4.03477 1.46484C3.61875 1.46484 3.21562 1.54452 2.83477 1.70273C2.4668 1.85507 2.13516 2.07421 1.85039 2.35312C1.56679 2.62982 1.34025 2.95949 1.18359 3.32343C1.0207 3.70195 0.9375 4.1039 0.9375 4.51757C0.9375 4.90781 1.01719 5.31445 1.17539 5.72812C1.30781 6.07382 1.49766 6.43241 1.74023 6.79452C2.12461 7.36757 2.65312 7.96523 3.30937 8.57109C4.39687 9.57538 5.47383 10.2691 5.51953 10.2973L5.79727 10.4754C5.92031 10.5539 6.07852 10.5539 6.20156 10.4754L6.4793 10.2973C6.525 10.268 7.60078 9.57538 8.68945 8.57109C9.3457 7.96523 9.87422 7.36757 10.2586 6.79452C10.5012 6.43241 10.6922 6.07382 10.8234 5.72812C10.9816 5.31445 11.0613 4.90781 11.0613 4.51757C11.0625 4.1039 10.9793 3.70195 10.8164 3.32343V3.32343Z" fill="#FF4343"/>
</svg>
