<svg width="12" height="12" viewBox="0 0 12 12" fill="none" xmlns="http://www.w3.org/2000/svg">
<path d="M10.8164 3.32345C10.6593 2.95974 10.4328 2.63015 10.1496 2.35313C9.86617 2.07529 9.53199 1.85449 9.16523 1.70274C8.78493 1.54477 8.37704 1.4639 7.96523 1.46485C7.3875 1.46485 6.82383 1.62306 6.33398 1.92188C6.2168 1.99337 6.10547 2.07188 6 2.15743C5.89453 2.07188 5.7832 1.99337 5.66602 1.92188C5.17617 1.62306 4.6125 1.46485 4.03477 1.46485C3.61875 1.46485 3.21562 1.54454 2.83477 1.70274C2.4668 1.85509 2.13516 2.07423 1.85039 2.35313C1.56679 2.62984 1.34025 2.9595 1.18359 3.32345C1.0207 3.70196 0.9375 4.10391 0.9375 4.51759C0.9375 4.90782 1.01719 5.31446 1.17539 5.72813C1.30781 6.07384 1.49766 6.43243 1.74023 6.79454C2.12461 7.36759 2.65312 7.96524 3.30937 8.5711C4.39687 9.5754 5.47383 10.2691 5.51953 10.2973L5.79727 10.4754C5.92031 10.5539 6.07852 10.5539 6.20156 10.4754L6.4793 10.2973C6.525 10.268 7.60078 9.5754 8.68945 8.5711C9.3457 7.96524 9.87422 7.36759 10.2586 6.79454C10.5012 6.43243 10.6922 6.07384 10.8234 5.72813C10.9816 5.31446 11.0613 4.90782 11.0613 4.51759C11.0625 4.10391 10.9793 3.70196 10.8164 3.32345ZM6 9.54845C6 9.54845 1.82812 6.8754 1.82812 4.51759C1.82812 3.32345 2.81602 2.35548 4.03477 2.35548C4.89141 2.35548 5.63438 2.8336 6 3.53204C6.36562 2.8336 7.10859 2.35548 7.96523 2.35548C9.18398 2.35548 10.1719 3.32345 10.1719 4.51759C10.1719 6.8754 6 9.54845 6 9.54845Z" fill="black"/>
</svg>
