<?xml version="1.0" encoding="utf-8"?>
<!-- Generator: Adobe Illustrator 26.5.0, SVG Export Plug-In . SVG Version: 6.00 Build 0)  -->
<svg version="1.1" id="레이어_1" xmlns="http://www.w3.org/2000/svg" xmlns:xlink="http://www.w3.org/1999/xlink" x="0px"
	 y="0px" viewBox="0 0 1024 308.42" style="enable-background:new 0 0 1024 308.42;" xml:space="preserve">
<style type="text/css">
	.st0{fill:#783DF5;}
	.st1{fill:#FFFFFF;}
</style>
<g>
	<g>
		<path class="st0" d="M292.13,281.44c0,14.31-8.86,23.84-21.46,23.5c-53.14-2.04-97.08-11.92-122.97-39.17
			c-25.55,27.59-69.83,37.13-122.63,39.17c-12.6,0.34-21.46-9.2-21.46-23.5V250.1c0-13.97,8.52-23.84,21.46-24.87
			c40.54-3.41,61.65-13.62,69.15-30.32c5.11-11.58,10.9-16.69,18.39-16.69h70.17c7.49,0,13.28,5.11,18.39,16.69
			c7.83,16.69,28.95,26.91,69.49,30.32c12.94,1.02,21.46,10.9,21.46,24.87V281.44z M191.3,147.57c0,14.31-8.52,23.84-21.46,23.84
			H26.78c-12.94,0-21.46-9.54-21.46-23.84V26.64c0-14.31,8.52-23.84,21.46-23.84h143.06c12.94,0,21.46,9.54,21.46,23.84V147.57z
			 M103.42,110.78c3.07-11.92,3.07-35.77,0-47.69H93.2c3.41,11.92,3.41,35.77,0,47.69H103.42z M290.77,154.38
			c0,14.31-8.52,23.84-21.46,23.84h-46.33c-12.94,0-21.46-9.54-21.46-23.84V26.64c0-14.31,8.52-23.84,21.46-23.84h46.33
			c12.94,0,21.46,9.54,21.46,23.84V154.38z"/>
		<path class="st0" d="M393.64,96.47c0,14.31-8.52,23.84-21.46,23.84h-38.83c-12.94,0-21.46-9.54-21.46-23.84V60.03
			c0-14.31,8.52-23.84,21.46-23.84h38.83c12.94,0,21.46,9.54,21.46,23.84V96.47z M393.64,247.37c0,14.31-8.52,23.84-21.46,23.84
			h-38.83c-12.94,0-21.46-9.54-21.46-23.84v-36.45c0-14.31,8.52-23.84,21.46-23.84h38.83c12.94,0,21.46,9.54,21.46,23.84V247.37z"/>
		<path class="st0" d="M602.78,234.43c-1.36,34.4-20.78,68.13-56.88,70.85c-27.93,2.04-43.6,2.04-71.19,0
			c-36.79-2.72-59.27-36.45-60.63-70.85c-3.07-68.13-3.07-92.65,0-160.78c1.36-34.4,23.84-68.13,60.63-70.85
			c27.59-2.04,43.26-2.04,71.19,0c36.11,2.73,55.52,35.77,56.88,70.85c0.34,8.52,0.68,14.99,0.68,22.14h7.49V26.64
			c0-14.31,8.52-23.84,21.46-23.84h46.33c12.94,0,21.46,9.54,21.46,23.84v254.79c0,14.31-8.52,23.84-21.46,23.84h-46.33
			c-12.94,0-21.46-9.54-21.46-23.84v-86.18h-6.81L602.78,234.43z M513.19,226.25c6.81-49.39,6.81-95.04,0-144.43h-9.88
			c6.47,49.39,6.47,95.04,0,144.43H513.19z"/>
		<path class="st0" d="M904.24,281.44c0,14.31-8.52,23.84-21.46,23.84h-140c-12.94,0-21.46-9.54-21.46-23.84V250.1
			c0-14.31,8.52-23.84,21.46-23.84h24.87v-24.53h-24.87c-12.94,0-21.46-9.54-21.46-23.84V26.64c0-14.31,8.52-23.84,21.46-23.84
			h43.26c12.94,0,21.46,9.54,21.46,23.84v6.81h10.22v-6.81c0-14.31,8.52-23.84,21.46-23.84h43.6c12.94,0,21.46,9.54,21.46,23.84
			v151.24c0,14.31-8.52,23.84-21.46,23.84h-25.55v24.53h25.55c12.94,0,21.46,9.54,21.46,23.84V281.44z M817.71,129.17
			c2.73-8.52,2.73-18.05,0-26.57H807.5c2.72,8.52,2.72,18.05,0,26.57H817.71z M999.27,281.44c0,14.31-8.52,23.84-21.46,23.84h-41.9
			c-12.94,0-21.46-9.54-21.46-23.84V26.64c0-14.31,8.52-23.84,21.46-23.84h41.9c12.94,0,21.46,9.54,21.46,23.84v68.47
			c0,14.31,21.12,13.63,21.12,27.93v51.78c0,14.31-21.12,13.62-21.12,27.93V281.44z"/>
	</g>
</g>
<circle class="st1" cx="165.28" cy="26.06" r="12.26"/>
<circle class="st1" cx="176.77" cy="202.32" r="12.26"/>
<circle class="st1" cx="267.12" cy="26.06" r="12.26"/>
<circle class="st1" cx="556.3" cy="38.32" r="12.26"/>
<circle class="st1" cx="676.62" cy="26.06" r="12.26"/>
<circle class="st1" cx="881.93" cy="26.06" r="12.26"/>
<circle class="st1" cx="881.93" cy="253.82" r="12.26"/>
<circle class="st1" cx="977.61" cy="26.68" r="12.26"/>
<circle class="st1" cx="370.24" cy="59.36" r="12.26"/>
<circle class="st1" cx="370.24" cy="212.08" r="12.26"/>
</svg>
