<svg width="20" height="20" viewBox="0 0 20 20" fill="none" xmlns="http://www.w3.org/2000/svg">
<path fill-rule="evenodd" clip-rule="evenodd" d="M18.0387 18.628L17.7441 18.3333L13.879 14.4683L13.5878 14.7012C12.3759 15.6706 10.8395 16.25 9.16668 16.25C5.25466 16.25 2.08334 13.0787 2.08334 9.16668C2.08334 5.25466 5.25466 2.08334 9.16668 2.08334C13.0787 2.08334 16.25 5.25466 16.25 9.16668C16.25 10.8396 15.6706 12.376 14.7012 13.5878L14.4683 13.879L18.6232 18.034L18.6256 18.0363C18.7029 18.1124 18.75 18.217 18.75 18.3333C18.75 18.5635 18.5635 18.75 18.3333 18.75C18.2182 18.75 18.1146 18.7038 18.0387 18.628ZM9.16668 2.91668C5.7149 2.91668 2.91668 5.7149 2.91668 9.16668C2.91668 12.6185 5.7149 15.4167 9.16668 15.4167C12.6185 15.4167 15.4167 12.6185 15.4167 9.16668C15.4167 5.7149 12.6185 2.91668 9.16668 2.91668Z" fill="#333333"/>
</svg>
