<svg width="64" height="64" viewBox="0 0 64 64" fill="none" xmlns="http://www.w3.org/2000/svg">
<path d="M63.3698 53.52C53.9818 36.37 44.5898 19.22 35.1998 2.06997C34.8867 1.47645 34.4175 0.979637 33.8428 0.633088C33.2682 0.286538 32.6099 0.103394 31.9388 0.103394C31.2677 0.103394 30.6094 0.286538 30.0348 0.633088C29.4601 0.979637 28.9909 1.47645 28.6778 2.06997C19.2888 19.22 9.8918 36.37 0.5078 53.52C-0.9452 56.169 0.906801 59.603 3.7658 59.603H60.1158C61.6998 59.603 62.7638 58.75 63.3188 57.593C64.0168 56.491 64.2038 55.028 63.3738 53.518" fill="#FFDD15"/>
<path d="M28.9172 34.477L28.0282 21.215C27.8622 18.632 27.7822 16.776 27.7822 15.65C27.7822 14.116 28.1822 12.923 28.9842 12.062C29.7892 11.206 30.8472 10.776 32.1592 10.776C33.7422 10.776 34.8052 11.327 35.3372 12.422C35.8742 13.524 36.1462 15.106 36.1462 17.173C36.1462 18.388 36.0802 19.626 35.9482 20.881L34.7582 34.53C34.6292 36.156 34.3542 37.402 33.9312 38.269C33.5052 39.14 32.8032 39.57 31.8222 39.57C30.8302 39.57 30.1322 39.151 29.7502 38.313C29.3572 37.472 29.0822 36.193 28.9172 34.477M31.9892 52.694C30.8642 52.694 29.8832 52.332 29.0422 51.601C28.2012 50.873 27.7822 49.853 27.7822 48.543C27.7822 47.4 28.1822 46.423 28.9842 45.622C29.7892 44.816 30.7702 44.416 31.9352 44.416C33.1002 44.416 34.0882 44.816 34.9122 45.622C35.7272 46.423 36.1462 47.4 36.1462 48.543C36.1462 49.833 35.7272 50.851 34.9002 51.587C34.1052 52.3115 33.0648 52.7071 31.9892 52.694" fill="#1F2E35"/>
</svg>
