<svg width="63" height="24" viewBox="0 0 63 24" fill="none" xmlns="http://www.w3.org/2000/svg">
<path d="M1.176 14.626V16.152H2.226C4.592 16.152 6.146 16.082 7.882 15.76L7.7 14.262C6.02 14.57 4.522 14.626 2.226 14.626H1.176ZM1.176 7.43V15.2H3.038V8.914H7.042V7.43H1.176ZM9.59 6.282V19.288H11.452V6.282H9.59ZM6.412 10.748V12.26H10.374V10.748H6.412ZM13.3129 16.236V17.748H25.0449V16.236H13.3129ZM18.2269 13.464V16.6H20.0889V13.464H18.2269ZM14.5449 7.108V13.856H23.7709V7.108H21.9229V9.096H16.3929V7.108H14.5449ZM16.3929 10.552H21.9229V12.372H16.3929V10.552ZM34.9698 6.282V19.246H36.8458V6.282H34.9698ZM31.1478 7.626V7.962C31.1478 11.434 29.8038 13.786 26.0798 15.578L27.0458 17.062C31.6518 14.836 32.9958 11.588 32.9958 7.626H31.1478ZM26.7658 7.626V9.096H32.0298V7.626H26.7658Z" fill="#5800FF"/>
<path d="M55.59 8.59003L51 13.17L46.41 8.59003L45 10L51 16L57 10L55.59 8.59003Z" fill="#5800FF"/>
</svg>
