<svg width="92" height="85" viewBox="0 0 92 85" fill="none" xmlns="http://www.w3.org/2000/svg">
<path d="M20.848 84.072H72.88C84.976 84.072 91.696 77.928 91.696 69.192C91.696 65.448 90.352 61.32 87.952 57L61.936 11.976C57.616 4.392 52.432 0.647999 46.48 0.647999C40.24 0.647999 35.056 4.58399 30.448 12.648L4.624 57.576C2.224 61.896 0.976 65.64 0.976 69.096C0.976 78.12 8.368 84.072 20.848 84.072ZM19.696 75.432C13.552 75.432 10.096 72.552 10.096 68.136C10.096 66.408 10.576 64.392 11.632 62.376L38.704 15.432C40.912 11.592 43.696 9.576 46.48 9.576C49.168 9.576 51.856 11.304 53.968 14.856L81.04 61.992C82.384 64.2 82.864 66.408 82.864 68.52C82.864 72.456 79.504 75.432 73.744 75.432H19.696ZM46.48 70.44C50.8 70.44 54.256 66.984 54.256 62.376C54.256 57.768 50.8 54.312 46.48 54.312C42.064 54.312 38.704 57.768 38.704 62.376C38.704 66.984 42.064 70.44 46.48 70.44ZM43.12 49.896H49.84L51.568 30.12L51.952 20.808H41.008L41.392 30.12L43.12 49.896Z" fill="black"/>
</svg>
