<svg width="34" height="34" viewBox="0 0 34 34" fill="none" xmlns="http://www.w3.org/2000/svg">
<circle cx="17" cy="17" r="17" fill="#CADCEA"/>
<circle cx="17" cy="17" r="15" fill="#3DA5F5"/>
<path d="M13.0357 7.69141C13.2768 7.26562 13.7723 7 14.3125 7H19.6875C20.2277 7 20.7232 7.26562 20.9643 7.69141L21.2857 8.25H25.5714C26.3616 8.25 27 8.80859 27 9.5C27 10.1914 26.3616 10.75 25.5714 10.75H8.42857C7.63839 10.75 7 10.1914 7 9.5C7 8.80859 7.63839 8.25 8.42857 8.25H12.7143L13.0357 7.69141ZM8.42857 12H25.5714V24.5C25.5714 25.8789 24.2902 27 22.7143 27H11.2857C9.70982 27 8.42857 25.8789 8.42857 24.5V12ZM12.7143 14.5C12.3214 14.5 12 14.7812 12 15.125V23.875C12 24.2188 12.3214 24.5 12.7143 24.5C13.1071 24.5 13.4286 24.2188 13.4286 23.875V15.125C13.4286 14.7812 13.1071 14.5 12.7143 14.5ZM17 14.5C16.6071 14.5 16.2857 14.7812 16.2857 15.125V23.875C16.2857 24.2188 16.6071 24.5 17 24.5C17.3929 24.5 17.7143 24.2188 17.7143 23.875V15.125C17.7143 14.7812 17.3929 14.5 17 14.5ZM21.2857 14.5C20.8929 14.5 20.5714 14.7812 20.5714 15.125V23.875C20.5714 24.2188 20.8929 24.5 21.2857 24.5C21.6786 24.5 22 24.2188 22 23.875V15.125C22 14.7812 21.6786 14.5 21.2857 14.5Z" fill="white"/>
</svg>
