<svg width="34" height="34" viewBox="0 0 34 34" fill="none" xmlns="http://www.w3.org/2000/svg">
<circle cx="17" cy="17" r="17" fill="#CADCEA"/>
<circle cx="17" cy="17" r="15" fill="#3DA5F5"/>
<path d="M25.375 10.625H22.1875L21.4281 8.49688C21.3757 8.35125 21.2795 8.22538 21.1528 8.13645C21.0261 8.04752 20.8751 7.99986 20.7203 8H13.5297C13.2133 8 12.9297 8.19922 12.8242 8.49688L12.0625 10.625H8.875C7.83906 10.625 7 11.4641 7 12.5V23.1875C7 24.2234 7.83906 25.0625 8.875 25.0625H25.375C26.4109 25.0625 27.25 24.2234 27.25 23.1875V12.5C27.25 11.4641 26.4109 10.625 25.375 10.625ZM17.125 21.3125C15.0531 21.3125 13.375 19.6344 13.375 17.5625C13.375 15.4906 15.0531 13.8125 17.125 13.8125C19.1969 13.8125 20.875 15.4906 20.875 17.5625C20.875 19.6344 19.1969 21.3125 17.125 21.3125ZM14.875 17.5625C14.875 18.1592 15.1121 18.7315 15.534 19.1535C15.956 19.5754 16.5283 19.8125 17.125 19.8125C17.7217 19.8125 18.294 19.5754 18.716 19.1535C19.1379 18.7315 19.375 18.1592 19.375 17.5625C19.375 16.9658 19.1379 16.3935 18.716 15.9715C18.294 15.5496 17.7217 15.3125 17.125 15.3125C16.5283 15.3125 15.956 15.5496 15.534 15.9715C15.1121 16.3935 14.875 16.9658 14.875 17.5625Z" fill="white"/>
</svg>
