<svg width="12" height="12" viewBox="0 0 12 12" fill="none" xmlns="http://www.w3.org/2000/svg">
<g clip-path="url(#clip0_88_324)">
<path d="M6.375 8.25V5.25H4.875V6H5.625V8.25H4.5V9H7.5V8.25H6.375ZM6 3C5.88875 3 5.77999 3.03299 5.68749 3.0948C5.59499 3.15661 5.52289 3.24446 5.48032 3.34724C5.43774 3.45002 5.4266 3.56312 5.44831 3.67224C5.47001 3.78135 5.52359 3.88158 5.60225 3.96025C5.68092 4.03891 5.78115 4.09249 5.89026 4.11419C5.99938 4.1359 6.11248 4.12476 6.21526 4.08218C6.31804 4.03961 6.40589 3.96751 6.4677 3.87501C6.52951 3.78251 6.5625 3.67375 6.5625 3.5625C6.5625 3.41332 6.50324 3.27024 6.39775 3.16475C6.29226 3.05926 6.14918 3 6 3Z" fill="#7A7070"/>
<path d="M6 11.25C4.96165 11.25 3.94662 10.9421 3.08326 10.3652C2.2199 9.78834 1.54699 8.9684 1.14963 8.00909C0.752275 7.04978 0.648307 5.99418 0.85088 4.97578C1.05345 3.95738 1.55347 3.02192 2.28769 2.28769C3.02192 1.55347 3.95738 1.05345 4.97578 0.85088C5.99418 0.648307 7.04978 0.752275 8.00909 1.14963C8.9684 1.54699 9.78834 2.2199 10.3652 3.08326C10.9421 3.94662 11.25 4.96165 11.25 6C11.25 7.39239 10.6969 8.72775 9.71231 9.71231C8.72775 10.6969 7.39239 11.25 6 11.25ZM6 1.5C5.10999 1.5 4.23996 1.76392 3.49994 2.25839C2.75992 2.75286 2.18314 3.45566 1.84254 4.27793C1.50195 5.10019 1.41284 6.00499 1.58647 6.87791C1.7601 7.75082 2.18869 8.55265 2.81802 9.18198C3.44736 9.81132 4.24918 10.2399 5.1221 10.4135C5.99501 10.5872 6.89981 10.4981 7.72208 10.1575C8.54434 9.81686 9.24715 9.24009 9.74162 8.50007C10.2361 7.76005 10.5 6.89002 10.5 6C10.5 4.80653 10.0259 3.66194 9.18198 2.81802C8.33807 1.97411 7.19348 1.5 6 1.5Z" fill="#7A7070"/>
</g>
<defs>
<clipPath id="clip0_88_324">
<rect width="12" height="12" fill="white"/>
</clipPath>
</defs>
</svg>
